<svg width="604" height="588" viewBox="0 0 604 588" fill="none" xmlns="http://www.w3.org/2000/svg">
<path d="M119.704 33.8403L505.108 382.93C537.855 412.591 540.356 463.182 510.695 495.929L487.199 521.87L101.794 172.78C69.0476 143.119 66.5462 92.5276 96.2073 59.781L119.704 33.8403Z" fill="#000000"/>
<path d="M397.017 35.3047L500.78 129.29C533.527 158.951 536.028 209.543 506.367 242.289L482.87 268.23L379.108 174.244C346.361 144.583 343.86 93.9919 373.521 61.2453L397.017 35.3047Z" fill="#000000"/>
<path d="M116.558 307.965L220.32 401.95C253.067 431.611 255.568 482.203 225.907 514.949L202.411 540.89L98.6483 446.904C65.9016 417.243 63.4003 366.652 93.0614 333.905L116.558 307.965Z" fill="#000000"/>
</svg>
